<?xml version="1.0" encoding="UTF-8" standalone="no"?>
<!DOCTYPE svg PUBLIC "-//W3C//DTD SVG 1.1//EN" "http://www.w3.org/Graphics/SVG/1.1/DTD/svg11.dtd">
<svg xmlns:xl="http://www.w3.org/1999/xlink" xmlns:dc="http://purl.org/dc/elements/1.1/" version="1.1" xmlns="http://www.w3.org/2000/svg" viewBox="3 3 18 18" width="18" height="18">
  <defs/>
  <g id="Canvas_1" stroke="none" stroke-dasharray="none" fill-opacity="1" fill="none" stroke-opacity="1">
    <title>Canvas 1</title>
    <g id="Canvas_1_Layer_1">
      <title>Layer 1</title>
      <g id="Graphic_2">
        <path d="M 20.7287 14.1771 C 19.5267 18.9986 14.6433 21.9329 9.82128 20.7306 C 5.00125 19.5285 2.06699 14.6449 3.26954 9.82378 C 4.47102 5.00177 9.3544 2.0673 14.175 3.26931 C 18.9966 4.47133 21.9307 9.35553 20.7286 14.1772 L 20.7287 14.1771 Z" fill="black"/>
      </g>
      <g id="Graphic_3">
        <rect x="9.09744" y="9.1" width="1.82646" height="1.8265" fill="black"/>
        <rect x="9.09744" y="9.1" width="1.82646" height="1.8265" stroke="white" stroke-linecap="butt" stroke-linejoin="round" stroke-width=".2"/>
      </g>
      <g id="Graphic_4">
        <rect x="13.0761" y="9.10391" width="1.8265" height="1.82649" fill="black"/>
        <rect x="13.0761" y="9.10391" width="1.8265" height="1.82649" stroke="white" stroke-linecap="butt" stroke-linejoin="round" stroke-width=".2"/>
      </g>
      <g id="Graphic_5">
        <rect x="9.09738" y="13.0865" width="1.82642" height="1.8265" fill="black"/>
        <rect x="9.09738" y="13.0865" width="1.82642" height="1.8265" stroke="white" stroke-linecap="butt" stroke-linejoin="round" stroke-width=".2"/>
      </g>
      <g id="Graphic_6">
        <rect x="13.0761" y="13.0865" width="1.8265" height="1.8265" fill="black"/>
        <rect x="13.0761" y="13.0865" width="1.8265" height="1.8265" stroke="white" stroke-linecap="butt" stroke-linejoin="round" stroke-width=".2"/>
      </g>
      <g id="Graphic_7">
        <rect x="11.0887" y="11.103" width="1.8265" height="1.8265" fill="black"/>
        <rect x="11.0887" y="11.103" width="1.8265" height="1.8265" stroke="white" stroke-linecap="butt" stroke-linejoin="round" stroke-width=".2"/>
      </g>
      <g id="Graphic_8">
        <rect x="8.24872" y="8.25" width="2.20048" height="2.2005" fill="black"/>
        <rect x="8.24872" y="8.25" width="2.20048" height="2.2005" stroke="white" stroke-linecap="butt" stroke-linejoin="round" stroke-width=".5"/>
      </g>
      <g id="Graphic_9">
        <rect x="13.5508" y="8.25519" width="2.2005" height="2.20051" fill="black"/>
        <rect x="13.5508" y="8.25519" width="2.2005" height="2.20051" stroke="white" stroke-linecap="butt" stroke-linejoin="round" stroke-width=".5"/>
      </g>
      <g id="Graphic_10">
        <rect x="8.24866" y="13.5625" width="2.20044" height="2.2005" fill="black"/>
        <rect x="8.24866" y="13.5625" width="2.20044" height="2.2005" stroke="white" stroke-linecap="butt" stroke-linejoin="round" stroke-width=".5"/>
      </g>
      <g id="Graphic_11">
        <rect x="13.5508" y="13.5625" width="2.2005" height="2.2005" fill="black"/>
        <rect x="13.5508" y="13.5625" width="2.2005" height="2.2005" stroke="white" stroke-linecap="butt" stroke-linejoin="round" stroke-width=".5"/>
      </g>
      <g id="Graphic_12">
        <rect x="10.9023" y="10.9193" width="2.2005" height="2.2004" fill="black"/>
        <rect x="10.9023" y="10.9193" width="2.2005" height="2.2004" stroke="white" stroke-linecap="butt" stroke-linejoin="round" stroke-width=".5"/>
      </g>
      <g id="Graphic_13">
        <rect x="7.25" y="7.25" width="2.8745" height="2.8745" fill="black"/>
        <rect x="7.25" y="7.25" width="2.8745" height="2.8745" stroke="white" stroke-linecap="butt" stroke-linejoin="round" stroke-width=".5"/>
      </g>
      <g id="Graphic_14">
        <rect x="13.8755" y="7.2565" width="2.8745" height="2.8745" fill="black"/>
        <rect x="13.8755" y="7.2565" width="2.8745" height="2.8745" stroke="white" stroke-linecap="butt" stroke-linejoin="round" stroke-width=".5"/>
      </g>
      <g id="Graphic_15">
        <rect x="7.24994" y="13.8885" width="2.87456" height="2.8745" fill="black"/>
        <rect x="7.24994" y="13.8885" width="2.87456" height="2.8745" stroke="white" stroke-linecap="butt" stroke-linejoin="round" stroke-width=".5"/>
      </g>
      <g id="Graphic_16">
        <rect x="13.8755" y="13.8885" width="2.8745" height="2.8745" fill="black"/>
        <rect x="13.8755" y="13.8885" width="2.8745" height="2.8745" stroke="white" stroke-linecap="butt" stroke-linejoin="round" stroke-width=".5"/>
      </g>
      <g id="Graphic_17">
        <rect x="10.566" y="10.5855" width="2.8745" height="2.8745" fill="black"/>
        <rect x="10.566" y="10.5855" width="2.8745" height="2.8745" stroke="white" stroke-linecap="butt" stroke-linejoin="round" stroke-width=".5"/>
      </g>
    </g>
  </g>
</svg>
